<svg xmlns="http://www.w3.org/2000/svg" xmlns:xlink="http://www.w3.org/1999/xlink" width="500" zoomAndPan="magnify" viewBox="0 0 375 374.999991" height="500" preserveAspectRatio="xMidYMid meet" version="1.0"><defs><g/><clipPath id="b89b367a9a"><path d="M 60.75 0 L 314.25 0 C 330.363281 0 345.8125 6.402344 357.207031 17.792969 C 368.597656 29.1875 375 44.636719 375 60.75 L 375 314.25 C 375 330.363281 368.597656 345.8125 357.207031 357.207031 C 345.8125 368.597656 330.363281 375 314.25 375 L 60.75 375 C 44.636719 375 29.1875 368.597656 17.792969 357.207031 C 6.402344 345.8125 0 330.363281 0 314.25 L 0 60.75 C 0 27.199219 27.199219 0 60.75 0 Z M 60.75 0 " clip-rule="nonzero"/></clipPath><clipPath id="a42318c7ea"><path d="M 62 52 L 309 52 L 309 295 L 62 295 Z M 62 52 " clip-rule="nonzero"/></clipPath><clipPath id="0af0e2b40b"><path d="M -3.390625 176.898438 L 188.589844 -15.082031 L 376.855469 173.183594 L 184.875 365.164062 Z M -3.390625 176.898438 " clip-rule="nonzero"/></clipPath><clipPath id="7c4bec3be9"><path d="M -3.390625 176.898438 L 188.589844 -15.082031 L 376.855469 173.183594 L 184.875 365.164062 Z M -3.390625 176.898438 " clip-rule="nonzero"/></clipPath><clipPath id="f318d707cc"><path d="M 175 159 L 196 159 L 196 179 L 175 179 Z M 175 159 " clip-rule="nonzero"/></clipPath><clipPath id="24639d373b"><path d="M -3.390625 176.898438 L 188.589844 -15.082031 L 376.855469 173.183594 L 184.875 365.164062 Z M -3.390625 176.898438 " clip-rule="nonzero"/></clipPath><clipPath id="96596788b4"><path d="M -3.390625 176.898438 L 188.589844 -15.082031 L 376.855469 173.183594 L 184.875 365.164062 Z M -3.390625 176.898438 " clip-rule="nonzero"/></clipPath><clipPath id="325cf1753a"><path d="M 171 8.113281 L 203 8.113281 L 203 38 L 171 38 Z M 171 8.113281 " clip-rule="nonzero"/></clipPath><clipPath id="b51c6eaef0"><path d="M 206 21 L 229.816406 21 L 229.816406 44.863281 L 206 44.863281 Z M 206 21 " clip-rule="nonzero"/></clipPath><clipPath id="21b9b7f207"><path d="M 143.566406 21 L 168 21 L 168 44.863281 L 143.566406 44.863281 Z M 143.566406 21 " clip-rule="nonzero"/></clipPath></defs><g clip-path="url(#b89b367a9a)"><rect x="-37.5" width="450" fill="#ffffff" y="-37.499999" height="449.999989" fill-opacity="1"/></g><g clip-path="url(#a42318c7ea)"><g clip-path="url(#0af0e2b40b)"><g clip-path="url(#7c4bec3be9)"><path fill="#4a08bc" d="M 237.742188 253.335938 C 237.386719 252.914062 237.050781 252.472656 236.679688 252.070312 C 231.140625 245.753906 224.035156 238.847656 215.726562 233.378906 L 215.675781 233.328125 C 215.523438 240.570312 215.21875 248.132812 214.746094 256.171875 C 205.578125 247.273438 195.617188 242.613281 185.65625 242.613281 L 185.640625 242.597656 C 185.621094 242.613281 185.621094 242.613281 185.621094 242.613281 C 175.660156 242.613281 165.699219 247.273438 156.53125 256.171875 C 156.058594 248.132812 155.753906 240.570312 155.601562 233.328125 L 155.550781 233.378906 C 147.246094 238.847656 140.121094 245.738281 134.582031 252.085938 C 134.226562 252.472656 133.890625 252.914062 133.535156 253.335938 C 133.550781 217.726562 149.539062 203.191406 155.988281 198.765625 C 159.976562 115.460938 185.640625 100.027344 185.640625 100.027344 C 185.640625 100.027344 211.300781 115.460938 215.285156 198.765625 C 221.734375 203.191406 237.726562 217.726562 237.742188 253.335938 Z M 176.148438 52.992188 C 116.230469 57.53125 67.824219 105.769531 63.128906 165.671875 C 58.453125 225.121094 96.375 276.652344 149.574219 293.011719 C 165.730469 297.992188 181.398438 283.777344 178.53125 267.09375 L 178.53125 267.0625 L 161.089844 267.078125 C 161.089844 267.042969 161.074219 267.0625 161.089844 267.042969 C 166.441406 260.78125 175.203125 252.964844 185.640625 252.960938 C 196.074219 252.960938 204.835938 260.78125 210.1875 267.042969 C 210.1875 267.042969 210.171875 267.0625 210.1875 267.078125 L 192.746094 267.0625 C 189.859375 283.894531 205.765625 297.976562 222.058594 292.894531 C 272.101562 277.363281 308.535156 230.625 308.535156 175.550781 C 308.535156 104.640625 248.191406 47.570312 176.148438 52.992188 " fill-opacity="1" fill-rule="nonzero"/></g></g></g><g clip-path="url(#f318d707cc)"><g clip-path="url(#24639d373b)"><g clip-path="url(#96596788b4)"><path fill="#4a08bc" d="M 195.328125 169.1875 C 195.328125 174.519531 190.992188 178.859375 185.640625 178.875 C 180.285156 178.859375 175.949219 174.519531 175.945312 169.183594 C 175.949219 163.816406 180.285156 159.476562 185.636719 159.492188 C 190.992188 159.476562 195.328125 163.816406 195.328125 169.1875 " fill-opacity="1" fill-rule="nonzero"/></g></g></g><g clip-path="url(#325cf1753a)"><path fill="#4a08bc" d="M 186.667969 8.214844 L 191.425781 17.863281 L 202.070312 19.40625 L 194.371094 26.917969 L 196.1875 37.515625 L 186.667969 32.511719 L 177.144531 37.515625 L 178.964844 26.917969 L 171.261719 19.40625 L 181.90625 17.863281 Z M 186.667969 8.214844 " fill-opacity="1" fill-rule="nonzero"/></g><g clip-path="url(#b51c6eaef0)"><path fill="#4a08bc" d="M 219.226562 21.023438 L 221.785156 28.945312 L 229.769531 31.324219 L 223.023438 36.214844 L 223.226562 44.539062 L 216.496094 39.632812 L 208.640625 42.398438 L 211.222656 34.484375 L 206.167969 27.867188 L 214.496094 27.875 Z M 219.226562 21.023438 " fill-opacity="1" fill-rule="nonzero"/></g><g clip-path="url(#21b9b7f207)"><path fill="#4a08bc" d="M 154.109375 21.023438 L 151.546875 28.945312 L 143.566406 31.324219 L 150.308594 36.214844 L 150.105469 44.539062 L 156.839844 39.632812 L 164.695312 42.398438 L 162.109375 34.484375 L 167.167969 27.867188 L 158.839844 27.875 Z M 154.109375 21.023438 " fill-opacity="1" fill-rule="nonzero"/></g><g fill="#4a08bc" fill-opacity="1"><g transform="translate(23.23355, 341.80476)"><g><path d="M 25.808594 -18.210938 L 21.78125 -22.332031 C 21.414062 -22.695312 21.003906 -22.878906 20.410156 -22.878906 L 7.277344 -22.878906 C 6.679688 -22.878906 6.269531 -22.695312 5.902344 -22.332031 L 1.875 -18.210938 C 1.554688 -17.890625 1.371094 -17.480469 1.371094 -17.023438 L 1.371094 -0.6875 C 1.371094 -0.320312 1.691406 0 2.058594 0 L 5.125 0 C 5.492188 0 5.8125 -0.320312 5.8125 -0.6875 L 5.8125 -7.503906 L 21.875 -7.503906 L 21.875 -0.6875 C 21.875 -0.320312 22.195312 0 22.558594 0 L 25.625 0 C 25.992188 0 26.3125 -0.320312 26.3125 -0.6875 L 26.3125 -17.023438 C 26.3125 -17.480469 26.128906 -17.890625 25.808594 -18.210938 Z M 5.8125 -11.484375 L 5.8125 -15.832031 C 5.8125 -16.152344 5.902344 -16.382812 6.132812 -16.609375 L 7.597656 -17.984375 L 7.871094 -18.210938 C 7.960938 -18.304688 8.097656 -18.351562 8.328125 -18.351562 L 19.355469 -18.351562 C 19.539062 -18.351562 19.675781 -18.304688 19.8125 -18.210938 L 20.089844 -17.984375 L 21.554688 -16.609375 C 21.78125 -16.382812 21.875 -16.152344 21.875 -15.832031 L 21.875 -11.484375 Z M 5.8125 -11.484375 "/></g></g></g><g fill="#4a08bc" fill-opacity="1"><g transform="translate(50.91005, 341.80476)"><g><path d="M 1.371094 -14.277344 C 1.371094 -13.683594 1.554688 -13.269531 1.921875 -12.90625 L 5.125 -9.792969 C 5.445312 -9.519531 5.855469 -9.289062 6.316406 -9.289062 L 19.90625 -9.289062 C 20.226562 -9.289062 20.453125 -9.199219 20.683594 -8.96875 L 21.371094 -8.144531 C 21.460938 -8.007812 21.507812 -7.871094 21.507812 -7.6875 L 21.507812 -6.589844 C 21.507812 -6.269531 21.414062 -6.039062 21.1875 -5.8125 L 20.179688 -4.894531 C 19.90625 -4.667969 19.722656 -4.53125 19.492188 -4.53125 L 2.835938 -4.53125 C 2.472656 -4.53125 2.152344 -4.210938 2.152344 -3.84375 L 2.152344 -0.6875 C 2.152344 -0.320312 2.472656 0 2.835938 0 L 20.773438 0 C 21.324219 0 21.691406 -0.136719 22.101562 -0.550781 L 25.761719 -4.210938 C 26.039062 -4.484375 26.3125 -4.941406 26.3125 -5.398438 L 26.3125 -9.199219 C 26.3125 -9.792969 26.128906 -10.25 25.761719 -10.570312 L 23.015625 -13.226562 C 22.695312 -13.5 22.285156 -13.726562 21.828125 -13.726562 L 7.777344 -13.726562 C 7.457031 -13.726562 7.230469 -13.820312 7 -14.046875 L 6.316406 -14.871094 C 6.222656 -15.007812 6.175781 -15.148438 6.175781 -15.328125 L 6.175781 -16.289062 C 6.175781 -16.609375 6.269531 -16.839844 6.496094 -17.070312 L 7.503906 -17.984375 C 7.777344 -18.210938 7.960938 -18.351562 8.191406 -18.351562 L 24.390625 -18.351562 C 24.757812 -18.351562 25.078125 -18.671875 25.078125 -19.035156 L 25.078125 -22.195312 C 25.078125 -22.558594 24.757812 -22.878906 24.390625 -22.878906 L 6.910156 -22.878906 C 6.359375 -22.878906 5.996094 -22.742188 5.582031 -22.332031 L 1.921875 -18.671875 C 1.648438 -18.394531 1.371094 -17.9375 1.371094 -17.480469 Z M 1.371094 -14.277344 "/></g></g></g><g fill="#4a08bc" fill-opacity="1"><g transform="translate(78.58655, 341.80476)"><g><path d="M 30.429688 -22.878906 L 2.058594 -22.878906 C 1.691406 -22.878906 1.371094 -22.558594 1.371094 -22.195312 L 1.371094 -18.761719 C 1.371094 -18.394531 1.691406 -18.074219 2.058594 -18.074219 L 13.867188 -18.074219 L 13.867188 -0.6875 C 13.867188 -0.320312 14.1875 0 14.550781 0 L 17.984375 0 C 18.351562 0 18.671875 -0.320312 18.671875 -0.6875 L 18.671875 -18.074219 L 30.429688 -18.074219 C 30.796875 -18.074219 31.117188 -18.394531 31.117188 -18.761719 L 31.117188 -22.195312 C 31.117188 -22.558594 30.796875 -22.878906 30.429688 -22.878906 Z M 30.429688 -22.878906 "/></g></g></g><g fill="#4a08bc" fill-opacity="1"><g transform="translate(111.066406, 341.80476)"><g><path d="M 26.449219 -18.351562 L 22.332031 -22.375 C 22.011719 -22.695312 21.597656 -22.878906 21.140625 -22.878906 L 2.058594 -22.878906 C 1.691406 -22.878906 1.371094 -22.558594 1.371094 -22.195312 L 1.371094 -0.6875 C 1.371094 -0.320312 1.691406 0 2.058594 0 L 5.214844 0 C 5.582031 0 5.902344 -0.320312 5.902344 -0.6875 L 5.902344 -5.035156 L 18.304688 -5.035156 L 21.140625 -0.410156 C 21.324219 -0.136719 21.554688 0 21.828125 0 L 25.257812 0 C 25.808594 0 26.082031 -0.503906 25.808594 -0.960938 L 22.695312 -5.949219 L 26.449219 -9.699219 C 26.722656 -9.976562 27 -10.433594 27 -10.890625 L 27 -16.976562 C 27 -17.570312 26.816406 -17.984375 26.449219 -18.351562 Z M 5.902344 -18.441406 L 19.675781 -18.441406 C 19.996094 -18.441406 20.226562 -18.351562 20.453125 -18.121094 L 21.828125 -16.65625 L 22.054688 -16.382812 C 22.148438 -16.246094 22.195312 -16.109375 22.195312 -15.925781 L 22.195312 -12.082031 C 22.195312 -11.761719 22.101562 -11.53125 21.875 -11.304688 L 20.410156 -9.929688 C 20.132812 -9.65625 19.953125 -9.5625 19.722656 -9.5625 L 5.902344 -9.5625 Z M 5.902344 -18.441406 "/></g></g></g><g fill="#4a08bc" fill-opacity="1"><g transform="translate(139.429102, 341.80476)"><g><path d="M 1.371094 -5.855469 C 1.371094 -5.398438 1.554688 -4.988281 1.875 -4.667969 L 5.902344 -0.550781 C 6.269531 -0.183594 6.679688 0 7.277344 0 L 20.410156 0 C 21.003906 0 21.414062 -0.183594 21.78125 -0.550781 L 25.808594 -4.667969 C 26.128906 -4.988281 26.3125 -5.398438 26.3125 -5.855469 L 26.3125 -17.023438 C 26.3125 -17.480469 26.128906 -17.890625 25.808594 -18.210938 L 21.78125 -22.332031 C 21.414062 -22.695312 21.003906 -22.878906 20.410156 -22.878906 L 7.277344 -22.878906 C 6.679688 -22.878906 6.269531 -22.695312 5.902344 -22.332031 L 1.875 -18.210938 C 1.554688 -17.890625 1.371094 -17.480469 1.371094 -17.023438 Z M 5.8125 -7.046875 L 5.8125 -15.832031 C 5.8125 -16.152344 5.902344 -16.382812 6.132812 -16.609375 L 7.597656 -17.984375 L 7.871094 -18.210938 C 7.960938 -18.304688 8.097656 -18.351562 8.328125 -18.351562 L 19.355469 -18.351562 C 19.539062 -18.351562 19.675781 -18.304688 19.8125 -18.210938 L 20.089844 -17.984375 L 21.554688 -16.609375 C 21.78125 -16.382812 21.875 -16.152344 21.875 -15.832031 L 21.875 -7.046875 C 21.875 -6.726562 21.78125 -6.496094 21.554688 -6.269531 L 20.089844 -4.894531 L 19.8125 -4.667969 C 19.675781 -4.574219 19.539062 -4.53125 19.355469 -4.53125 L 8.328125 -4.53125 C 8.097656 -4.53125 7.960938 -4.574219 7.871094 -4.667969 L 7.597656 -4.894531 L 6.132812 -6.269531 C 5.902344 -6.496094 5.8125 -6.726562 5.8125 -7.046875 Z M 5.8125 -7.046875 "/></g></g></g><g fill="#4a08bc" fill-opacity="1"><g transform="translate(167.105602, 341.80476)"><g/></g></g><g fill="#4a08bc" fill-opacity="1"><g transform="translate(178.999641, 341.80476)"><g><path d="M 26.449219 -18.351562 L 22.332031 -22.375 C 22.011719 -22.695312 21.597656 -22.878906 21.140625 -22.878906 L 2.058594 -22.878906 C 1.691406 -22.878906 1.371094 -22.558594 1.371094 -22.195312 L 1.371094 -0.6875 C 1.371094 -0.320312 1.691406 0 2.058594 0 L 5.214844 0 C 5.582031 0 5.902344 -0.320312 5.902344 -0.6875 L 5.902344 -5.035156 L 18.304688 -5.035156 L 21.140625 -0.410156 C 21.324219 -0.136719 21.554688 0 21.828125 0 L 25.257812 0 C 25.808594 0 26.082031 -0.503906 25.808594 -0.960938 L 22.695312 -5.949219 L 26.449219 -9.699219 C 26.722656 -9.976562 27 -10.433594 27 -10.890625 L 27 -16.976562 C 27 -17.570312 26.816406 -17.984375 26.449219 -18.351562 Z M 5.902344 -18.441406 L 19.675781 -18.441406 C 19.996094 -18.441406 20.226562 -18.351562 20.453125 -18.121094 L 21.828125 -16.65625 L 22.054688 -16.382812 C 22.148438 -16.246094 22.195312 -16.109375 22.195312 -15.925781 L 22.195312 -12.082031 C 22.195312 -11.761719 22.101562 -11.53125 21.875 -11.304688 L 20.410156 -9.929688 C 20.132812 -9.65625 19.953125 -9.5625 19.722656 -9.5625 L 5.902344 -9.5625 Z M 5.902344 -18.441406 "/></g></g></g><g fill="#4a08bc" fill-opacity="1"><g transform="translate(207.362337, 341.80476)"><g><path d="M 1.371094 -5.855469 C 1.371094 -5.398438 1.554688 -4.988281 1.875 -4.667969 L 5.902344 -0.550781 C 6.269531 -0.183594 6.679688 0 7.277344 0 L 20.410156 0 C 21.003906 0 21.414062 -0.183594 21.78125 -0.550781 L 25.808594 -4.667969 C 26.128906 -4.988281 26.3125 -5.398438 26.3125 -5.855469 L 26.3125 -17.023438 C 26.3125 -17.480469 26.128906 -17.890625 25.808594 -18.210938 L 21.78125 -22.332031 C 21.414062 -22.695312 21.003906 -22.878906 20.410156 -22.878906 L 7.277344 -22.878906 C 6.679688 -22.878906 6.269531 -22.695312 5.902344 -22.332031 L 1.875 -18.210938 C 1.554688 -17.890625 1.371094 -17.480469 1.371094 -17.023438 Z M 5.8125 -7.046875 L 5.8125 -15.832031 C 5.8125 -16.152344 5.902344 -16.382812 6.132812 -16.609375 L 7.597656 -17.984375 L 7.871094 -18.210938 C 7.960938 -18.304688 8.097656 -18.351562 8.328125 -18.351562 L 19.355469 -18.351562 C 19.539062 -18.351562 19.675781 -18.304688 19.8125 -18.210938 L 20.089844 -17.984375 L 21.554688 -16.609375 C 21.78125 -16.382812 21.875 -16.152344 21.875 -15.832031 L 21.875 -7.046875 C 21.875 -6.726562 21.78125 -6.496094 21.554688 -6.269531 L 20.089844 -4.894531 L 19.8125 -4.667969 C 19.675781 -4.574219 19.539062 -4.53125 19.355469 -4.53125 L 8.328125 -4.53125 C 8.097656 -4.53125 7.960938 -4.574219 7.871094 -4.667969 L 7.597656 -4.894531 L 6.132812 -6.269531 C 5.902344 -6.496094 5.8125 -6.726562 5.8125 -7.046875 Z M 5.8125 -7.046875 "/></g></g></g><g fill="#4a08bc" fill-opacity="1"><g transform="translate(235.038837, 341.80476)"><g><path d="M 22.558594 -13.773438 L 25.625 -13.773438 C 25.992188 -13.773438 26.3125 -14.09375 26.3125 -14.460938 L 26.3125 -17.25 C 26.3125 -17.710938 26.128906 -18.121094 25.808594 -18.441406 L 21.78125 -22.558594 C 21.414062 -22.925781 21.003906 -23.109375 20.410156 -23.109375 L 7.367188 -23.109375 C 6.816406 -23.109375 6.453125 -22.972656 6.039062 -22.558594 L 1.921875 -18.441406 C 1.648438 -18.167969 1.371094 -17.710938 1.371094 -17.25 L 1.371094 -5.628906 C 1.371094 -5.171875 1.648438 -4.714844 1.921875 -4.4375 L 6.039062 -0.320312 C 6.453125 0.0898438 6.816406 0.230469 7.367188 0.230469 L 20.410156 0.230469 C 21.003906 0.230469 21.414062 0.046875 21.78125 -0.320312 L 25.808594 -4.4375 C 26.128906 -4.757812 26.3125 -5.171875 26.3125 -5.628906 L 26.3125 -8.417969 C 26.3125 -8.785156 25.992188 -9.105469 25.625 -9.105469 L 22.558594 -9.105469 C 22.195312 -9.105469 21.875 -8.785156 21.875 -8.417969 L 21.875 -6.816406 C 21.875 -6.496094 21.828125 -6.269531 21.554688 -6.039062 L 20.089844 -4.667969 C 19.859375 -4.4375 19.675781 -4.300781 19.355469 -4.300781 L 8.648438 -4.300781 C 8.417969 -4.300781 8.238281 -4.394531 7.960938 -4.667969 L 6.496094 -6.039062 C 6.269531 -6.269531 6.175781 -6.496094 6.175781 -6.816406 L 6.175781 -16.0625 C 6.175781 -16.382812 6.269531 -16.609375 6.496094 -16.839844 L 7.960938 -18.210938 C 8.238281 -18.488281 8.417969 -18.578125 8.648438 -18.578125 L 19.355469 -18.578125 C 19.675781 -18.578125 19.859375 -18.441406 20.089844 -18.210938 L 21.554688 -16.839844 C 21.828125 -16.609375 21.875 -16.382812 21.875 -16.0625 L 21.875 -14.460938 C 21.875 -14.09375 22.195312 -13.773438 22.558594 -13.773438 Z M 22.558594 -13.773438 "/></g></g></g><g fill="#4a08bc" fill-opacity="1"><g transform="translate(262.715337, 341.80476)"><g><path d="M 26.3125 -18.671875 L 26.3125 -22.195312 C 26.3125 -22.558594 25.992188 -22.878906 25.625 -22.878906 L 22.195312 -22.878906 C 21.828125 -22.878906 21.507812 -22.558594 21.507812 -22.195312 L 21.507812 -19.449219 L 18.210938 -13.726562 L 6.175781 -13.726562 L 6.175781 -22.195312 C 6.175781 -22.558594 5.855469 -22.878906 5.492188 -22.878906 L 2.058594 -22.878906 C 1.691406 -22.878906 1.371094 -22.558594 1.371094 -22.195312 L 1.371094 -0.6875 C 1.371094 -0.320312 1.691406 0 2.058594 0 L 5.492188 0 C 5.855469 0 6.175781 -0.320312 6.175781 -0.6875 L 6.175781 -8.832031 L 18.53125 -8.832031 C 18.851562 -8.832031 19.082031 -8.738281 19.3125 -8.511719 L 21.140625 -6.589844 L 21.371094 -6.316406 C 21.460938 -6.175781 21.507812 -6.039062 21.507812 -5.855469 L 21.507812 -0.6875 C 21.507812 -0.320312 21.828125 0 22.195312 0 L 25.625 0 C 25.992188 0 26.3125 -0.320312 26.3125 -0.6875 L 26.3125 -7.824219 C 26.3125 -8.417969 26.128906 -8.832031 25.761719 -9.199219 L 22.835938 -12.082031 L 26.039062 -17.664062 C 26.21875 -17.9375 26.3125 -18.351562 26.3125 -18.671875 Z M 26.3125 -18.671875 "/></g></g></g><g fill="#4a08bc" fill-opacity="1"><g transform="translate(290.391837, 341.80476)"><g><path d="M 6.496094 -16.609375 L 7.960938 -17.984375 C 8.238281 -18.257812 8.417969 -18.351562 8.648438 -18.351562 L 25.167969 -18.351562 C 25.535156 -18.351562 25.855469 -18.671875 25.855469 -19.035156 L 25.855469 -22.195312 C 25.855469 -22.558594 25.535156 -22.878906 25.167969 -22.878906 L 7.136719 -22.878906 C 6.589844 -22.878906 6.222656 -22.742188 5.8125 -22.332031 L 1.921875 -18.441406 C 1.648438 -18.167969 1.371094 -17.710938 1.371094 -17.25 L 1.371094 -5.675781 C 1.371094 -5.078125 1.554688 -4.667969 1.921875 -4.300781 L 5.8125 -0.503906 C 6.132812 -0.183594 6.542969 0 7 0 L 25.167969 0 C 25.535156 0 25.855469 -0.320312 25.855469 -0.6875 L 25.855469 -3.753906 C 25.855469 -4.117188 25.535156 -4.4375 25.167969 -4.4375 L 8.695312 -4.4375 C 8.375 -4.4375 8.144531 -4.53125 7.917969 -4.757812 L 6.316406 -6.496094 C 6.222656 -6.636719 6.175781 -6.773438 6.175781 -6.957031 L 6.175781 -9.335938 L 22.925781 -9.335938 C 23.292969 -9.335938 23.613281 -9.65625 23.613281 -10.019531 L 23.613281 -13.179688 C 23.613281 -13.546875 23.292969 -13.867188 22.925781 -13.867188 L 6.175781 -13.867188 L 6.175781 -15.832031 C 6.175781 -16.152344 6.269531 -16.382812 6.496094 -16.609375 Z M 6.496094 -16.609375 "/></g></g></g><g fill="#4a08bc" fill-opacity="1"><g transform="translate(317.610879, 341.80476)"><g><path d="M 30.429688 -22.878906 L 2.058594 -22.878906 C 1.691406 -22.878906 1.371094 -22.558594 1.371094 -22.195312 L 1.371094 -18.761719 C 1.371094 -18.394531 1.691406 -18.074219 2.058594 -18.074219 L 13.867188 -18.074219 L 13.867188 -0.6875 C 13.867188 -0.320312 14.1875 0 14.550781 0 L 17.984375 0 C 18.351562 0 18.671875 -0.320312 18.671875 -0.6875 L 18.671875 -18.074219 L 30.429688 -18.074219 C 30.796875 -18.074219 31.117188 -18.394531 31.117188 -18.761719 L 31.117188 -22.195312 C 31.117188 -22.558594 30.796875 -22.878906 30.429688 -22.878906 Z M 30.429688 -22.878906 "/></g></g></g><g fill="#4a08bc" fill-opacity="1"><g transform="translate(109.059756, 362.79347)"><g><path d="M 4.71875 0 L 2.765625 0 L 2.765625 -7.59375 L 0.265625 -7.59375 L 0.265625 -9.21875 L 7.21875 -9.21875 L 7.21875 -7.59375 L 4.71875 -7.59375 Z M 4.71875 0 "/></g></g></g><g fill="#4a08bc" fill-opacity="1"><g transform="translate(120.159703, 362.79347)"><g><path d="M 6.46875 0 L 1.15625 0 L 1.15625 -9.21875 L 6.46875 -9.21875 L 6.46875 -7.625 L 3.109375 -7.625 L 3.109375 -5.59375 L 6.234375 -5.59375 L 6.234375 -4 L 3.109375 -4 L 3.109375 -1.609375 L 6.46875 -1.609375 Z M 6.46875 0 "/></g></g></g><g fill="#4a08bc" fill-opacity="1"><g transform="translate(131.013643, 362.79347)"><g><path d="M 5.078125 -7.734375 C 4.335938 -7.734375 3.765625 -7.453125 3.359375 -6.890625 C 2.960938 -6.335938 2.765625 -5.570312 2.765625 -4.59375 C 2.765625 -2.53125 3.535156 -1.5 5.078125 -1.5 C 5.722656 -1.5 6.507812 -1.660156 7.4375 -1.984375 L 7.4375 -0.34375 C 6.675781 -0.03125 5.828125 0.125 4.890625 0.125 C 3.554688 0.125 2.53125 -0.28125 1.8125 -1.09375 C 1.101562 -1.90625 0.75 -3.070312 0.75 -4.59375 C 0.75 -5.550781 0.921875 -6.390625 1.265625 -7.109375 C 1.617188 -7.835938 2.125 -8.394531 2.78125 -8.78125 C 3.4375 -9.164062 4.203125 -9.359375 5.078125 -9.359375 C 5.972656 -9.359375 6.875 -9.140625 7.78125 -8.703125 L 7.15625 -7.109375 C 6.800781 -7.273438 6.445312 -7.421875 6.09375 -7.546875 C 5.75 -7.671875 5.410156 -7.734375 5.078125 -7.734375 Z M 5.078125 -7.734375 "/></g></g></g><g fill="#4a08bc" fill-opacity="1"><g transform="translate(142.864226, 362.79347)"><g><path d="M 8.71875 0 L 6.765625 0 L 6.765625 -3.984375 L 3.109375 -3.984375 L 3.109375 0 L 1.15625 0 L 1.15625 -9.21875 L 3.109375 -9.21875 L 3.109375 -5.609375 L 6.765625 -5.609375 L 6.765625 -9.21875 L 8.71875 -9.21875 Z M 8.71875 0 "/></g></g></g><g fill="#4a08bc" fill-opacity="1"><g transform="translate(156.367474, 362.79347)"><g/></g></g><g fill="#4a08bc" fill-opacity="1"><g transform="translate(163.342072, 362.79347)"><g><path d="M 6.8125 0 L 6.140625 -2.203125 L 2.78125 -2.203125 L 2.109375 0 L 0 0 L 3.25 -9.265625 L 5.640625 -9.265625 L 8.921875 0 Z M 5.671875 -3.84375 C 5.054688 -5.832031 4.707031 -6.957031 4.625 -7.21875 C 4.550781 -7.476562 4.492188 -7.679688 4.453125 -7.828125 C 4.316406 -7.285156 3.921875 -5.957031 3.265625 -3.84375 Z M 5.671875 -3.84375 "/></g></g></g><g fill="#4a08bc" fill-opacity="1"><g transform="translate(175.873908, 362.79347)"><g><path d="M 9.34375 0 L 6.859375 0 L 2.84375 -6.984375 L 2.78125 -6.984375 C 2.863281 -5.742188 2.90625 -4.863281 2.90625 -4.34375 L 2.90625 0 L 1.15625 0 L 1.15625 -9.21875 L 3.625 -9.21875 L 7.640625 -2.3125 L 7.671875 -2.3125 C 7.609375 -3.507812 7.578125 -4.359375 7.578125 -4.859375 L 7.578125 -9.21875 L 9.34375 -9.21875 Z M 9.34375 0 "/></g></g></g><g fill="#4a08bc" fill-opacity="1"><g transform="translate(189.995327, 362.79347)"><g><path d="M 8.8125 -4.703125 C 8.8125 -3.179688 8.378906 -2.015625 7.515625 -1.203125 C 6.648438 -0.398438 5.398438 0 3.765625 0 L 1.15625 0 L 1.15625 -9.21875 L 4.0625 -9.21875 C 5.5625 -9.21875 6.726562 -8.820312 7.5625 -8.03125 C 8.394531 -7.238281 8.8125 -6.128906 8.8125 -4.703125 Z M 6.78125 -4.65625 C 6.78125 -6.632812 5.90625 -7.625 4.15625 -7.625 L 3.109375 -7.625 L 3.109375 -1.609375 L 3.953125 -1.609375 C 5.835938 -1.609375 6.78125 -2.625 6.78125 -4.65625 Z M 6.78125 -4.65625 "/></g></g></g><g fill="#4a08bc" fill-opacity="1"><g transform="translate(203.176869, 362.79347)"><g/></g></g><g fill="#4a08bc" fill-opacity="1"><g transform="translate(210.151464, 362.79347)"><g><path d="M 6.609375 -2.5625 C 6.609375 -1.726562 6.304688 -1.070312 5.703125 -0.59375 C 5.109375 -0.113281 4.273438 0.125 3.203125 0.125 C 2.222656 0.125 1.351562 -0.0546875 0.59375 -0.421875 L 0.59375 -2.25 C 1.21875 -1.96875 1.742188 -1.769531 2.171875 -1.65625 C 2.609375 -1.539062 3.003906 -1.484375 3.359375 -1.484375 C 3.785156 -1.484375 4.113281 -1.566406 4.34375 -1.734375 C 4.570312 -1.898438 4.6875 -2.144531 4.6875 -2.46875 C 4.6875 -2.644531 4.632812 -2.800781 4.53125 -2.9375 C 4.4375 -3.082031 4.289062 -3.21875 4.09375 -3.34375 C 3.894531 -3.476562 3.492188 -3.691406 2.890625 -3.984375 C 2.328125 -4.242188 1.90625 -4.492188 1.625 -4.734375 C 1.34375 -4.984375 1.117188 -5.269531 0.953125 -5.59375 C 0.785156 -5.914062 0.703125 -6.296875 0.703125 -6.734375 C 0.703125 -7.546875 0.976562 -8.1875 1.53125 -8.65625 C 2.082031 -9.125 2.847656 -9.359375 3.828125 -9.359375 C 4.304688 -9.359375 4.757812 -9.300781 5.1875 -9.1875 C 5.625 -9.070312 6.082031 -8.910156 6.5625 -8.703125 L 5.9375 -7.1875 C 5.4375 -7.382812 5.023438 -7.523438 4.703125 -7.609375 C 4.390625 -7.691406 4.078125 -7.734375 3.765625 -7.734375 C 3.390625 -7.734375 3.101562 -7.644531 2.90625 -7.46875 C 2.707031 -7.300781 2.609375 -7.078125 2.609375 -6.796875 C 2.609375 -6.617188 2.648438 -6.46875 2.734375 -6.34375 C 2.816406 -6.21875 2.941406 -6.09375 3.109375 -5.96875 C 3.285156 -5.851562 3.703125 -5.640625 4.359375 -5.328125 C 5.210938 -4.910156 5.800781 -4.492188 6.125 -4.078125 C 6.445312 -3.671875 6.609375 -3.164062 6.609375 -2.5625 Z M 6.609375 -2.5625 "/></g></g></g><g fill="#4a08bc" fill-opacity="1"><g transform="translate(220.885551, 362.79347)"><g><path d="M 3.109375 -4.890625 L 3.765625 -4.890625 C 4.359375 -4.890625 4.804688 -5.003906 5.109375 -5.234375 C 5.410156 -5.472656 5.5625 -5.820312 5.5625 -6.28125 C 5.5625 -6.738281 5.4375 -7.078125 5.1875 -7.296875 C 4.9375 -7.515625 4.539062 -7.625 4 -7.625 L 3.109375 -7.625 Z M 7.53125 -6.34375 C 7.53125 -5.351562 7.21875 -4.59375 6.59375 -4.0625 C 5.976562 -3.539062 5.097656 -3.28125 3.953125 -3.28125 L 3.109375 -3.28125 L 3.109375 0 L 1.15625 0 L 1.15625 -9.21875 L 4.109375 -9.21875 C 5.222656 -9.21875 6.070312 -8.976562 6.65625 -8.5 C 7.238281 -8.019531 7.53125 -7.300781 7.53125 -6.34375 Z M 7.53125 -6.34375 "/></g></g></g><g fill="#4a08bc" fill-opacity="1"><g transform="translate(232.616282, 362.79347)"><g><path d="M 6.8125 0 L 6.140625 -2.203125 L 2.78125 -2.203125 L 2.109375 0 L 0 0 L 3.25 -9.265625 L 5.640625 -9.265625 L 8.921875 0 Z M 5.671875 -3.84375 C 5.054688 -5.832031 4.707031 -6.957031 4.625 -7.21875 C 4.550781 -7.476562 4.492188 -7.679688 4.453125 -7.828125 C 4.316406 -7.285156 3.921875 -5.957031 3.265625 -3.84375 Z M 5.671875 -3.84375 "/></g></g></g><g fill="#4a08bc" fill-opacity="1"><g transform="translate(245.148122, 362.79347)"><g><path d="M 5.078125 -7.734375 C 4.335938 -7.734375 3.765625 -7.453125 3.359375 -6.890625 C 2.960938 -6.335938 2.765625 -5.570312 2.765625 -4.59375 C 2.765625 -2.53125 3.535156 -1.5 5.078125 -1.5 C 5.722656 -1.5 6.507812 -1.660156 7.4375 -1.984375 L 7.4375 -0.34375 C 6.675781 -0.03125 5.828125 0.125 4.890625 0.125 C 3.554688 0.125 2.53125 -0.28125 1.8125 -1.09375 C 1.101562 -1.90625 0.75 -3.070312 0.75 -4.59375 C 0.75 -5.550781 0.921875 -6.390625 1.265625 -7.109375 C 1.617188 -7.835938 2.125 -8.394531 2.78125 -8.78125 C 3.4375 -9.164062 4.203125 -9.359375 5.078125 -9.359375 C 5.972656 -9.359375 6.875 -9.140625 7.78125 -8.703125 L 7.15625 -7.109375 C 6.800781 -7.273438 6.445312 -7.421875 6.09375 -7.546875 C 5.75 -7.671875 5.410156 -7.734375 5.078125 -7.734375 Z M 5.078125 -7.734375 "/></g></g></g><g fill="#4a08bc" fill-opacity="1"><g transform="translate(256.998702, 362.79347)"><g><path d="M 6.46875 0 L 1.15625 0 L 1.15625 -9.21875 L 6.46875 -9.21875 L 6.46875 -7.625 L 3.109375 -7.625 L 3.109375 -5.59375 L 6.234375 -5.59375 L 6.234375 -4 L 3.109375 -4 L 3.109375 -1.609375 L 6.46875 -1.609375 Z M 6.46875 0 "/></g></g></g></svg>